<?xml version="1.0" standalone="no"?><!-- Generator: Gravit.io --><svg xmlns="http://www.w3.org/2000/svg" xmlns:xlink="http://www.w3.org/1999/xlink" style="isolation:isolate" viewBox="145.276 17.991 70 72.486" width="70" height="72.486"><g><path d=" M 197.346 17.991 L 197.585 18.134 C 197.608 18.722 197.541 19.356 197.202 19.856 L 197.202 19.856 L 196.15 24.254 Q 201.458 26.884 205.331 30.948 Q 214.923 39.478 215.276 57.246 Q 214.43 67.493 209.921 74.077 Q 208.685 76.092 207.148 77.806 Q 205.899 78.135 206.096 79.91 Q 206.383 80.101 206.191 80.771 L 206.191 83.353 Q 206.142 84.068 205.761 84.453 Q 204.262 86.205 201.458 86.652 Q 200.586 86.376 200.071 85.744 Q 199.703 85.346 199.736 84.548 Q 192.022 90.508 178.22 90.382 Q 170.514 89.768 165.023 86.939 L 164.163 87.895 Q 163.472 88.782 161.676 88.565 Q 161.018 87.692 159.381 87.8 Q 158.449 87.776 157.995 87.274 Q 156.694 85.61 156.369 82.97 Q 156.247 80.128 154.456 78.954 Q 152.503 76.986 151.014 74.555 Q 145.435 67.176 145.276 54.377 Q 146.8 37.589 156.895 29.371 Q 165.428 20.547 182.715 20.477 Q 186.616 20.783 189.887 21.72 L 197.346 17.991 Z " fill="rgb(62,66,137)"/><path d=" M 196.868 18.756 L 197.011 18.804 L 194.716 28.175 Q 194.524 29.466 194.047 30.47 Q 194.214 31.116 193.903 31.283 L 190.986 33.435 C 190.511 34.392 189.418 34.206 188.548 34.152 C 188.252 34.134 187.93 34.208 187.735 33.913 L 187.735 33.913 L 187.353 33.435 Q 188.17 32.961 188.213 31.713 Q 187.738 30.802 186.062 31.092 Q 183.983 31.595 182.762 32.957 Q 181.982 33.945 181.663 35.395 L 181.089 35.491 C 180.932 35.244 180.551 35.331 180.324 35.395 L 180.324 35.395 L 179.654 36.16 L 179.511 36.208 C 177.076 38.333 174.864 40.709 172.913 43.285 L 172.913 43.285 L 173.152 43.332 L 175.447 40.942 C 176.059 40.404 176.991 40.443 177.742 40.559 L 177.742 40.559 L 178.077 41.085 C 176.656 42.331 175.45 43.809 174.491 45.436 L 174.491 45.436 L 173.343 44.002 C 173.059 44.155 173.134 44.563 173.2 44.815 L 173.2 44.815 L 173.869 45.771 L 174.06 46.249 L 172.769 48.974 L 172.052 47.014 Q 172.275 46.663 173.008 46.823 Q 172.78 45.664 172.004 45.054 Q 171.249 44.852 170.904 44.241 L 169.948 42.806 L 170.379 42.567 C 170.64 43.193 171.272 43.419 171.909 43.428 L 171.909 43.428 L 173.869 41.563 L 175.877 39.268 L 175.16 38.933 L 174.204 40.463 L 174.156 38.312 L 178.507 33.291 L 178.937 33.052 L 179.176 32.622 C 179.561 32.662 180.03 32.632 180.276 32.287 L 180.276 32.287 L 186.731 23.824 L 196.868 18.756 Z " fill="rgb(253,253,253)"/><path d=" M 179.081 20.382 L 181.519 20.429 L 179.081 20.477 L 179.081 20.382 Z " fill="rgb(61,64,136)"/><path d=" M 181.567 20.382 L 182.38 20.429 L 181.567 20.477 L 181.567 20.382 Z " fill="rgb(60,63,136)"/><line x1="194.859" y1="20.573" x2="193.903" y2="21.625"/><path d=" M 194.955 20.573 L 195.29 20.812 L 192.421 23.489 L 192.517 24.063 C 192.238 24.66 191.668 24.976 191.034 25.067 L 191.034 25.067 L 190.891 24.828 L 194.955 20.573 Z " fill="rgb(62,66,137)"/><path d=" M 178.698 21.147 L 181.902 21.194 L 178.698 21.242 L 178.698 21.147 Z " fill="rgb(166,167,200)"/><path d=" M 177.933 21.242 Q 184.15 20.906 188.691 22.246 Q 187.154 22.765 186.109 23.776 L 179.75 32.048 C 179.364 32.022 178.918 32.07 178.65 32.383 L 178.65 32.383 L 178.411 32.813 L 177.598 33.435 L 176.403 34.917 Q 166.159 36.866 160.577 43.476 Q 154.06 49.821 153.787 62.41 Q 154.093 67.269 155.604 70.921 Q 154.567 71.463 154.552 73.025 Q 155.389 74.005 155.317 75.894 Q 154.989 76.379 155.126 77.328 Q 155.549 77.67 155.317 78.667 L 154.552 77.998 Q 146.609 70.018 146.041 54.664 Q 147.365 38.536 156.799 30.518 Q 164.293 22.807 177.933 21.242 Z " fill="rgb(253,253,253)"/><path d=" M 194.668 21.338 L 194.094 22.007 L 194.668 21.338 Z  M 192.947 22.581 L 192.277 23.346 L 192.947 22.581 Z  M 193.234 22.677 L 192.517 23.489 L 192.612 23.968 L 192.517 23.968 L 192.421 23.489 L 193.234 22.677 Z  M 191.512 24.111 L 191.13 24.589 L 191.512 24.111 Z  M 192.469 24.111 L 191.991 24.685 L 192.469 24.111 Z " fill-rule="evenodd" fill="rgb(166,167,200)"/><path d=" M 189.026 24.685 L 188.978 24.828 L 188.357 25.737 L 187.974 25.832 L 189.026 24.685 Z  M 172.004 25.067 Q 173.694 25.003 174.251 26.071 Q 175.605 27.778 175.59 30.853 Q 175.375 32.072 174.491 32.622 Q 173.081 33.316 171.239 33.578 L 169.088 26.263 L 172.004 25.067 Z " fill-rule="evenodd" fill="rgb(62,66,137)"/><line x1="188.548" y1="25.067" x2="188.07" y2="25.641"/><path d=" M 196.007 25.067 Q 201.706 27.927 205.713 32.479 Q 214.213 40.714 214.511 57.151 Q 213.181 70.643 205.857 78.141 L 203.227 74.746 Q 206.928 69.219 206.956 60.019 Q 205.666 47.491 198.015 41.324 Q 194.128 37.752 188.5 35.921 Q 191.764 33.878 194.525 31.331 Q 194.494 30.01 195.003 29.227 L 196.007 25.067 Z " fill="rgb(253,253,253)"/><path d=" M 187.305 26.119 L 187.735 26.167 L 187.496 26.693 C 187.319 26.732 187.053 26.758 186.97 26.55 L 186.97 26.55 L 186.874 26.263 L 187.305 26.119 Z " fill="rgb(62,66,137)"/><path d=" M 171.909 26.597 Q 173.068 26.442 173.295 27.219 Q 174.292 28.421 174.156 30.757 L 173.726 31.857 L 172.387 32.144 L 170.809 26.932 L 171.909 26.597 Z " fill="rgb(253,253,253)"/><path d=" M 189.217 26.597 L 189.361 26.645 L 189.17 26.741 L 189.265 26.932 L 189.17 26.932 L 189.122 26.789 L 188.978 26.836 L 189.217 26.597 Z " fill="rgb(166,167,200)"/><path d=" M 189.217 26.693 L 189.17 26.836 Q 189.079 27.75 188.452 28.127 Q 187.556 29.383 186.062 30.04 L 186.492 29.514 L 188.739 26.98 L 189.217 26.693 Z  M 166.075 27.649 C 166.86 27.702 167.76 28.229 168.047 29.007 C 168.206 29.44 168.191 29.924 168.131 30.375 L 168.131 30.375 L 167.462 31.522 C 168.608 31.968 169.645 32.671 170.426 33.626 L 170.426 33.626 L 170.379 33.769 L 168.944 34.248 L 167.605 33.1 C 167.435 32.682 166.942 32.659 166.553 32.718 L 166.553 32.718 L 166.506 32.861 L 167.557 35.06 L 166.458 35.682 L 163.254 29.036 L 166.075 27.649 Z " fill-rule="evenodd" fill="rgb(62,66,137)"/><line x1="188.357" y1="28.127" x2="187.783" y2="28.797"/><path d=" M 202.701 28.414 L 203.083 28.892 L 202.701 28.414 Z  M 157.66 28.606 L 157.277 29.084 L 157.66 28.606 Z " fill-rule="evenodd" fill="rgb(60,63,136)"/><path d=" M 196.963 28.797 L 197.776 29.323 L 196.246 32.765 L 196.389 32.813 L 199.354 30.422 L 199.976 30.948 L 198.637 34.295 L 198.78 34.343 L 200.693 32.718 C 200.726 32.226 201.091 32.021 201.553 32.048 L 201.553 32.048 L 202.271 32.67 L 197.154 37.69 L 196.437 37.164 L 197.776 33.53 L 197.633 33.483 L 195.624 35.491 C 195.48 35.859 195.14 36.513 194.764 35.969 L 194.764 35.969 L 194.142 35.539 L 195.959 30.948 L 196.963 28.797 Z " fill="rgb(62,66,137)"/><path d=" M 165.406 28.988 C 166.529 28.812 167.002 29.717 166.888 30.757 L 166.888 30.757 L 166.267 31.474 L 165.98 31.57 L 164.976 29.227 L 165.406 28.988 Z " fill="rgb(253,253,253)"/><path d=" M 188.07 29.084 L 188.404 29.227 L 188.261 29.179 L 188.022 29.227 L 188.07 29.371 C 187.898 29.285 187.898 29.17 188.07 29.084 L 188.07 29.084 Z " fill="rgb(166,167,200)"/><path d=" M 203.466 29.084 L 203.944 29.657 L 203.466 29.084 Z  M 156.895 29.275 L 156.034 30.231 L 156.895 29.275 Z " fill-rule="evenodd" fill="rgb(60,63,136)"/><line x1="187.114" y1="29.275" x2="186.731" y2="29.753"/><line x1="204.04" y1="29.657" x2="204.709" y2="30.422"/><line x1="157.469" y1="29.849" x2="156.895" y2="30.518"/><line x1="155.939" y1="30.231" x2="155.078" y2="31.188"/><line x1="204.805" y1="30.327" x2="205.474" y2="31.092"/><path d=" M 204.135 30.805 L 204.9 31.666 L 204.135 30.805 Z  M 166.745 30.996 L 166.362 31.474 L 166.745 30.996 Z " fill-rule="evenodd" fill="rgb(166,167,200)"/><line x1="205.379" y1="30.996" x2="206.048" y2="31.761"/><path d=" M 161.198 31.092 C 161.417 31.098 161.638 31.117 161.854 31.153 C 163.822 31.482 164.838 33.741 164.458 35.577 C 164.391 35.901 164.343 36.116 164.231 36.426 C 163.768 37.713 162.871 38.574 161.488 38.65 C 160.022 38.73 158.906 37.268 158.538 36.012 C 158.305 35.217 158.173 34.312 158.382 33.499 C 158.652 32.447 159.378 31.628 160.414 31.276 C 160.668 31.189 160.932 31.13 161.198 31.092 L 161.198 31.092 Z " fill="rgb(62,66,137)"/><line x1="154.982" y1="31.188" x2="154.217" y2="32.048"/><path d=" M 186.348 31.57 Q 187.343 31.436 187.735 31.905 Q 187.628 32.61 187.114 32.909 L 186.109 33.339 C 187.012 33.467 187.526 34.075 187.353 34.965 L 187.353 34.965 L 187.018 35.395 L 186.444 35.491 C 185.778 35.094 185.01 34.9 184.245 34.821 L 184.245 34.821 L 184.34 35.013 L 185.631 35.539 L 185.488 35.969 L 185.105 36.065 L 182.284 35.347 C 182.601 33.22 184.304 31.951 186.348 31.57 L 186.348 31.57 Z " fill="rgb(253,253,253)"/><line x1="163.206" y1="31.761" x2="163.589" y2="32.239"/><line x1="206.144" y1="31.761" x2="206.526" y2="32.239"/><path d=" M 155.269 32.048 L 154.695 32.718 L 155.269 32.048 Z  M 175.064 32.048 L 174.682 32.526 L 175.064 32.048 Z " fill-rule="evenodd" fill="rgb(166,167,200)"/><line x1="153.93" y1="32.335" x2="153.548" y2="32.813"/><path d=" M 202.032 32.335 Q 202.94 32.909 201.553 33.483 Q 202.709 32.909 202.032 32.335 Z " fill="rgb(166,167,200)"/><path d=" M 160.72 32.526 Q 162.349 32.332 162.68 33.435 Q 163.282 34.172 163.159 35.634 Q 163.017 36.449 162.441 36.83 L 161.581 37.021 C 160.087 36.562 159.094 34.936 159.762 33.409 C 159.866 33.171 160.029 32.962 160.242 32.813 L 160.242 32.813 L 160.72 32.526 Z " fill="rgb(253,253,253)"/><path d=" M 183.193 32.526 L 182.81 33.004 L 183.193 32.526 Z  M 183.575 32.813 L 183.097 33.387 L 183.575 32.813 Z  M 187.783 32.909 L 187.4 33.387 L 187.783 32.909 Z  M 178.029 33.004 L 177.646 33.483 L 178.029 33.004 Z  M 180.802 33.1 L 180.754 33.244 L 180.324 33.769 C 180.168 33.575 180.349 33.395 180.515 33.291 L 180.515 33.291 L 180.659 33.339 L 180.802 33.1 Z  M 178.411 33.291 L 178.029 33.769 L 178.411 33.291 Z " fill-rule="evenodd" fill="rgb(166,167,200)"/><path d=" M 180.611 33.291 L 180.276 33.722 L 179.75 34.343 L 179.511 34.295 L 180.611 33.291 Z " fill="rgb(62,66,137)"/><path d=" M 197.633 33.483 L 197.776 33.53 L 197.585 33.626 L 197.68 33.817 L 197.585 33.817 L 197.537 33.674 L 196.055 35.06 L 197.633 33.483 Z  M 189.026 34.152 L 189.935 34.2 L 189.026 34.248 L 189.026 34.152 Z " fill-rule="evenodd" fill="rgb(166,167,200)"/><path d=" M 187.974 34.63 L 189.17 34.774 L 183.288 39.316 L 183.241 39.172 C 183.487 39.008 183.475 38.664 183.432 38.407 L 183.432 38.407 L 183.432 38.216 C 183.692 37.942 183.676 37.51 183.623 37.164 L 183.623 37.164 L 183.527 36.877 L 183.958 36.351 C 184.432 36.566 184.977 36.584 185.488 36.543 L 185.488 36.543 L 186.014 36.112 L 186.062 35.969 C 186.679 36.051 187.448 35.999 187.735 35.347 L 187.735 35.347 L 187.974 34.63 Z " fill="rgb(253,253,253)"/><path d=" M 156.321 34.821 L 157.038 35.443 L 156.704 35.873 L 156.943 35.539 L 156.417 34.917 L 156.13 35.108 L 156.321 34.821 Z " fill="rgb(166,167,200)"/><path d=" M 156.321 34.917 L 156.943 35.443 L 155.7 36.973 L 156.704 38.073 L 157.612 37.164 C 157.665 36.743 158.277 36.731 158.521 36.99 C 158.66 37.137 158.678 37.356 158.664 37.547 L 158.664 37.547 L 157.517 38.981 L 159.525 41.276 Q 158.688 42.926 157.851 41.229 L 155.221 38.599 L 154.552 37.834 C 154.304 37.798 154.241 37.576 154.265 37.356 L 154.265 37.356 L 156.321 34.917 Z  M 204.422 35.3 L 204.757 35.347 L 205.618 36.304 L 202.032 42.185 L 201.314 41.563 L 202.079 40.033 L 200.693 38.742 L 199.354 39.507 L 198.589 38.647 L 204.422 35.3 Z " fill-rule="evenodd" fill="rgb(62,66,137)"/><path d=" M 180.324 35.395 L 179.75 36.065 L 180.324 35.395 Z  M 204.805 35.395 L 205.57 36.256 L 204.805 35.395 Z " fill-rule="evenodd" fill="rgb(166,167,200)"/><path d=" M 181.95 35.778 C 182.455 35.754 183.008 35.809 183.432 36.112 L 183.432 36.112 L 183.001 36.734 L 182.141 36.638 L 182.093 36.782 L 183.049 37.069 L 183.145 37.642 L 183.001 37.882 L 181.71 37.929 L 182.858 38.503 L 182.81 38.838 L 181.806 38.981 L 182.667 39.555 L 183.193 40.272 Q 184.437 40.797 185.249 41.754 Q 187.381 44.356 188.309 48.162 L 187.783 48.209 L 187.496 48.114 Q 186.234 48.238 185.488 48.879 Q 184.615 48.174 183.097 48.114 L 182.476 48.257 L 182.523 48.401 C 183.49 48.435 184.502 48.658 185.249 49.309 L 185.249 49.309 L 184.436 50.409 C 183.391 50.233 182.362 49.868 181.519 49.213 L 181.519 49.213 L 181.28 48.401 L 181.089 48.305 L 180.515 48.496 L 180.133 48.305 L 179.846 48.496 Q 179.421 48.203 179.654 47.253 Q 179.344 47.42 179.32 47.875 L 179.511 48.735 C 177.004 48.856 174.388 49.524 172.578 51.365 L 172.578 51.365 L 172.626 51.222 C 173.553 47.761 175.233 44.491 177.838 41.994 L 177.838 41.994 L 180.563 39.651 L 180.467 38.981 L 180.945 38.599 L 181.041 38.407 C 180.716 38.254 180.708 37.854 180.754 37.547 L 180.754 37.547 L 181.041 37.356 L 181.089 36.638 L 181.424 36.399 C 181.39 36.187 181.415 35.93 181.663 35.873 L 181.663 35.873 L 181.95 35.778 Z  M 180.706 35.873 L 180.945 35.921 L 180.898 36.16 L 180.563 36.399 L 180.467 36.973 C 180.711 37.136 180.443 37.289 180.276 37.356 L 180.276 37.356 L 180.18 37.929 L 180.372 38.312 C 180.044 38.52 179.915 38.897 179.894 39.268 L 179.894 39.268 L 179.989 39.459 Q 179.629 40.39 178.411 40.463 Q 177.657 40.022 176.547 39.938 L 178.411 37.977 L 180.706 35.873 Z " fill-rule="evenodd" fill="rgb(253,253,253)"/><path d=" M 156.034 36.543 L 155.795 36.877 L 155.986 37.164 L 155.7 36.973 L 156.034 36.543 Z  M 179.846 36.543 L 178.507 37.977 L 179.846 36.543 Z " fill-rule="evenodd" fill="rgb(166,167,200)"/><path d=" M 203.944 36.925 L 203.896 37.069 L 202.605 39.22 L 201.697 38.216 L 203.944 36.925 Z " fill="rgb(253,253,253)"/><path d=" M 154.217 37.403 L 155.221 38.503 L 154.17 37.547 L 154.217 37.403 Z  M 177.646 38.168 L 176.307 39.603 L 177.646 38.168 Z  M 202.223 38.838 L 202.605 39.316 L 202.223 38.838 Z " fill-rule="evenodd" fill="rgb(166,167,200)"/><path d=" M 153.165 39.029 L 153.978 39.651 L 153.404 40.511 L 157.517 44.05 C 157.54 44.24 157.495 44.444 157.277 44.48 L 157.277 44.48 L 156.799 44.767 L 152.687 41.707 L 152.114 42.567 L 151.396 42.041 L 153.165 39.029 Z  M 207.387 39.125 L 207.817 39.459 C 208.792 40.154 209.403 41.545 208.711 42.624 C 208.183 43.447 207.365 43.65 206.43 43.524 L 206.43 43.524 L 206.048 43.332 L 204.805 45.819 L 204.47 45.58 L 203.992 44.815 L 205.331 42.519 L 204.996 42.376 L 203.275 43.715 L 202.653 42.902 L 207.387 39.125 Z " fill-rule="evenodd" fill="rgb(62,66,137)"/><path d=" M 157.947 39.412 L 158.329 39.89 L 157.947 39.412 Z  M 175.734 39.412 L 175.351 39.89 L 175.734 39.412 Z " fill-rule="evenodd" fill="rgb(166,167,200)"/><path d=" M 173.343 39.89 L 173.582 39.938 L 173.773 40.989 L 172.865 41.994 L 171.813 42.854 L 170.904 42.233 C 170.88 41.786 171.052 41.395 171.526 41.324 L 171.526 41.324 L 171.813 41.42 L 173.056 40.081 L 173.343 39.89 Z " fill="rgb(253,253,253)"/><path d=" M 158.807 40.368 L 159.19 40.846 L 158.807 40.368 Z  M 174.873 40.368 L 174.491 40.846 L 174.873 40.368 Z  M 157.182 40.559 L 158.329 41.707 C 158.484 42.051 158.727 42.246 158.951 41.85 L 158.951 41.85 L 159.62 41.276 L 158.951 41.946 C 158.727 42.342 158.484 42.146 158.329 41.802 L 158.329 41.802 L 157.182 40.559 Z " fill-rule="evenodd" fill="rgb(166,167,200)"/><path d=" M 182.906 40.75 L 183.814 41.468 C 185.684 43.083 186.374 45.577 186.492 47.97 L 186.492 47.97 L 186.396 47.97 L 185.966 47.444 L 185.775 47.54 C 185.572 47.369 185.591 47.058 185.631 46.823 L 185.631 46.823 L 185.918 47.014 L 186.157 47.349 L 186.205 46.536 Q 185.857 45.21 185.201 44.193 Q 184.675 44.289 184.579 43.954 L 184.627 43.81 L 184.962 43.763 C 185.021 42.933 184.235 43.086 183.674 42.851 C 183.195 42.649 182.823 42.281 182.619 41.802 L 182.619 41.802 L 182.236 42.089 L 182.284 41.946 C 182.331 41.482 182.51 41.023 182.906 40.75 L 182.906 40.75 Z " fill="rgb(62,66,137)"/><path d=" M 207.195 40.75 L 207.53 40.894 C 207.911 40.967 208.032 41.301 208.008 41.659 L 208.008 41.659 L 207.482 42.28 C 207.283 42.492 206.892 42.541 206.622 42.472 C 206.158 42.352 205.565 41.901 206.144 41.515 L 206.144 41.515 L 207.195 40.75 Z " fill="rgb(253,253,253)"/><line x1="175.064" y1="40.846" x2="174.012" y2="41.994"/><path d=" M 180.228 40.846 L 180.563 41.085 Q 180.68 42.971 180.037 44.097 Q 180.156 43.165 179.654 42.854 L 177.885 44.432 L 176.69 46.201 L 176.642 46.058 C 176.982 45.364 177.411 44.734 177.908 44.144 C 178.282 43.699 178.673 43.398 178.842 42.806 L 178.842 42.806 L 178.459 42.328 L 180.228 40.846 Z " fill="rgb(62,66,137)"/><path d=" M 175.256 41.037 L 173.821 42.567 L 175.256 41.037 Z  M 178.029 41.133 L 176.69 42.567 L 178.029 41.133 Z  M 178.603 41.229 L 177.933 41.994 L 178.603 41.229 Z  M 162.728 41.324 L 162.346 41.802 L 162.728 41.324 Z  M 198.015 41.324 L 198.589 41.994 L 198.015 41.324 Z  M 173.821 41.515 L 172.387 43.045 L 173.821 41.515 Z  M 172.769 41.994 L 172.195 42.663 L 172.769 41.994 Z  M 183.097 42.089 C 183.237 42.674 183.716 42.963 184.292 42.998 L 184.292 42.998 L 183.958 43.045 L 183.097 42.089 Z  M 177.455 42.376 L 176.881 43.045 L 177.455 42.376 Z  M 161.198 42.854 L 160.624 43.524 L 161.198 42.854 Z  M 199.545 42.854 L 200.119 43.524 L 199.545 42.854 Z  M 184.436 43.045 L 184.914 43.619 L 184.436 43.045 Z  M 179.941 43.237 L 180.085 44.241 L 179.894 44.336 L 179.941 43.237 Z " fill-rule="evenodd" fill="rgb(166,167,200)"/><path d=" M 167.223 43.715 L 171 45.58 L 172.53 49.787 L 172.387 49.835 C 170.168 48.401 168.158 46.541 166.984 44.145 L 166.984 44.145 L 167.223 43.715 Z " fill="rgb(253,253,253)"/><path d=" M 150.679 44.002 L 152.257 44.815 L 155.7 46.727 L 155.078 47.731 L 150.153 45.006 L 150.679 44.002 Z " fill="rgb(62,66,137)"/><path d=" M 171.048 44.384 L 171.43 44.862 L 171.048 44.384 Z  M 157.182 44.48 L 156.895 44.862 L 156.656 44.719 L 156.799 44.767 L 157.182 44.48 Z " fill-rule="evenodd" fill="rgb(166,167,200)"/><path d=" M 210.351 44.575 L 210.59 44.623 C 211.511 45.398 211.86 47.23 210.989 48.154 C 210.362 48.818 208.996 49.139 208.439 48.209 L 208.439 48.209 L 206.622 50.409 L 206.096 49.213 L 207.817 47.301 L 207.674 47.062 C 206.919 47.182 206.173 47.442 205.57 47.922 L 205.57 47.922 L 205.139 47.014 L 210.351 44.575 Z " fill="rgb(62,66,137)"/><path d=" M 165.884 45.436 Q 166.864 45.221 167.271 45.58 Q 167.918 46.749 168.896 47.588 L 168.227 48.066 Q 168.825 48.759 168.992 49.883 Q 168.636 50.292 167.797 50.218 L 166.984 49.596 L 166.506 48.927 C 167.062 48.543 167.194 47.839 167.175 47.205 L 167.175 47.205 L 166.84 46.966 C 166.497 47.045 166.619 47.421 166.611 47.669 C 166.601 47.981 166.547 48.309 166.267 48.496 L 166.267 48.496 L 165.454 48.64 L 165.358 48.831 L 165.501 49.07 C 165.703 49.022 166.017 48.979 166.123 49.213 L 166.123 49.213 L 167.127 50.409 L 167.557 50.648 C 167.539 51.096 167.406 51.563 167.032 51.843 L 167.032 51.843 L 166.553 51.939 L 165.31 50.696 Q 164.617 50.433 164.976 50.17 Q 165.316 49.984 165.262 49.405 L 165.023 49.261 L 164.784 49.405 L 164.354 50.026 L 164.019 50.17 C 163.988 50.324 163.981 50.539 164.163 50.6 L 164.163 50.6 L 164.45 50.504 L 165.741 51.891 C 166.168 52.002 166.493 52.731 166.176 53.097 C 165.886 53.431 165.445 53.496 165.023 53.469 L 165.023 53.469 L 162.967 51.795 C 163.262 51.619 163.288 51.242 163.254 50.935 L 163.254 50.935 L 163.015 50.791 L 162.346 51.652 L 161.915 51.891 L 162.059 52.226 L 162.633 52.13 L 164.689 53.804 C 164.738 54.221 164.628 54.64 164.163 54.712 L 164.163 54.712 L 163.398 54.808 L 162.585 54.186 C 161.8 53.39 161.272 52.384 160.959 51.317 L 160.959 51.317 L 162.011 50.361 L 161.915 49.213 Q 163.086 49.284 163.637 48.735 Q 163.321 47.224 164.067 46.775 L 165.215 46.871 L 165.454 46.727 C 165.454 46.268 165.547 45.773 165.884 45.436 L 165.884 45.436 Z " fill="rgb(253,253,253)"/><path d=" M 176.116 45.532 L 176.164 45.771 C 175.677 46.434 175.466 47.257 175.399 48.066 L 175.399 48.066 L 175.542 48.305 L 175.686 48.257 L 176.021 47.444 Q 175.973 48.113 176.355 48.353 Q 175.735 48.88 174.682 48.974 L 174.73 48.831 L 174.777 48.688 L 174.921 48.64 C 175.012 47.519 175.337 46.375 176.116 45.532 L 176.116 45.532 Z " fill="rgb(62,66,137)"/><path d=" M 209.777 46.106 L 210.112 46.249 C 210.523 46.566 210.542 47.244 210.075 47.491 C 209.81 47.632 209.497 47.653 209.204 47.636 L 209.204 47.636 L 208.582 46.632 L 209.777 46.106 Z " fill="rgb(253,253,253)"/><path d=" M 181.758 46.871 L 181.806 47.683 L 181.663 47.922 L 181.615 47.397 L 181.758 46.871 Z  M 149.532 47.253 L 154.265 49.118 L 153.93 50.218 L 152.209 49.548 L 151.588 51.03 L 151.396 51.7 L 153.309 52.465 L 152.879 53.469 L 148.336 51.7 C 148.301 51.315 148.338 50.855 148.671 50.6 L 148.671 50.6 L 150.488 51.269 C 150.964 50.687 151.203 49.951 151.301 49.213 L 151.301 49.213 L 149.101 48.353 C 149.076 47.946 149.15 47.48 149.532 47.253 L 149.532 47.253 Z " fill-rule="evenodd" fill="rgb(62,66,137)"/><path d=" M 163.685 47.253 L 163.732 48.544 L 163.637 48.544 L 163.685 47.253 Z  M 179.654 47.253 L 179.702 48.162 L 179.607 48.162 L 179.654 47.253 Z  M 185.87 47.444 L 186.396 47.875 L 185.966 47.54 L 185.87 47.444 Z  M 207.482 47.636 L 207.1 48.114 L 207.482 47.636 Z " fill-rule="evenodd" fill="rgb(166,167,200)"/><path d=" M 178.029 47.731 L 178.555 47.779 L 178.507 48.018 L 177.168 48.209 L 177.12 48.066 L 178.029 47.731 Z " fill="rgb(62,66,137)"/><line x1="211.116" y1="47.922" x2="210.734" y2="48.401"/><path d=" M 169.231 48.018 L 170.809 49.309 Q 170.975 50.766 170.283 51.365 Q 169.367 51.549 168.801 52.082 L 168.179 53.278 L 166.697 52.943 L 166.84 52.417 C 167.211 52.329 167.547 52.126 167.749 51.795 L 167.749 51.795 L 168.179 50.696 C 168.481 50.698 168.797 50.657 169.062 50.503 C 169.84 50.053 169.495 48.736 168.896 48.257 L 168.896 48.257 L 169.231 48.018 Z " fill="rgb(253,253,253)"/><line x1="206.526" y1="48.688" x2="206.144" y2="49.166"/><path d=" M 187.209 48.783 C 188.173 48.769 189.19 48.899 190.03 49.405 L 190.03 49.405 L 190.269 49.931 L 190.939 50.026 C 191.101 49.783 191.254 50.05 191.321 50.218 L 191.321 50.218 L 191.465 50.265 L 190.795 50.648 L 190.939 50.887 Q 192.206 50.576 192.517 51.222 Q 192.637 52.249 193.282 52.752 Q 194.233 52.9 194.142 54.091 Q 190.074 54.134 187.161 55.334 Q 187.683 55.911 189.122 55.573 Q 192.294 55.493 195.051 54.999 L 195.385 55.525 C 194.786 55.546 194.164 55.727 193.807 56.242 L 193.807 56.242 L 193.521 55.86 L 192.947 55.764 Q 191.809 55.678 191.178 56.099 Q 191.128 56.962 191.608 57.294 L 192.325 57.629 C 192.583 58.364 192.687 59.147 192.708 59.924 L 192.708 59.924 L 192.517 59.828 Q 191.692 58.119 190.556 56.72 Q 189.958 56.601 189.839 56.959 L 190.604 61.645 L 190.508 61.645 L 189.361 59.063 C 188.643 58.426 189.227 57.517 188.975 56.759 C 188.917 56.583 188.805 56.432 188.644 56.338 L 188.644 56.338 L 187.018 56.529 L 186.97 55.716 Q 187.086 53.681 188.022 52.465 Q 189.065 52.265 188.978 50.935 L 188.739 50.791 Q 188.524 51.102 187.783 50.887 Q 187.52 50.241 187.257 50.648 L 187.114 50.983 L 186.683 50.935 L 187.066 50.265 L 186.922 50.026 C 186.635 50.103 186.36 50.235 186.139 50.438 C 185.56 50.97 186.033 51.853 185.344 52.369 L 185.344 52.369 L 185.536 52.656 L 185.153 53.421 L 185.297 53.66 L 185.87 53.851 C 186.004 53.629 186.338 53.701 186.54 53.756 L 186.54 53.756 L 186.588 54.091 C 186.534 54.558 186.383 55.027 186.062 55.382 L 186.062 55.382 L 185.297 55.477 L 185.344 55.334 C 185.451 54.855 184.932 54.506 184.61 54.97 C 184.347 55.348 184.717 55.896 185.105 55.955 L 185.105 55.955 L 186.109 56.194 L 186.062 58.537 Q 185.631 58.633 185.536 58.394 Q 185.607 58.035 185.392 57.963 L 185.249 58.011 L 185.105 58.25 L 184.914 58.346 C 184.944 57.88 184.89 57.346 184.532 57.007 L 184.532 57.007 L 184.388 57.055 C 184.134 57.904 184.16 58.791 184.235 59.664 C 184.371 61.237 184.656 62.823 185.297 64.275 L 185.297 64.275 L 185.344 63.845 C 184.978 62.539 184.814 61.181 184.771 59.828 L 184.771 59.828 L 184.914 59.302 L 186.109 59.35 L 186.301 61.071 C 186.048 61.052 185.564 61.07 185.44 61.358 C 185.339 61.592 185.323 62.031 185.583 62.171 L 185.583 62.171 L 186.683 62.315 Q 187.213 63.123 187.161 64.514 Q 187.033 64.911 186.444 64.849 L 186.157 64.179 L 185.918 64.227 C 185.914 64.534 185.963 64.833 186.119 65.103 C 186.416 65.619 187.039 65.393 187.4 65.04 L 187.4 65.04 L 188.165 66.283 L 188.309 65.948 C 187.353 63.658 187.012 61.148 186.97 58.681 L 186.97 58.681 L 187.687 58.633 L 190.652 65.327 L 191.991 68.196 Q 192.875 68.411 193.09 67.957 Q 193.134 65.857 192.708 64.227 L 192.803 64.227 Q 193.088 66.524 194.286 67.909 Q 194.931 67.981 195.003 67.479 L 195.098 66.713 Q 193.899 62.51 193.377 57.629 Q 193.592 57.27 194.381 57.485 Q 195.025 58.037 194.907 59.35 L 196.15 64.323 C 196.293 65.457 196.57 66.584 197.059 67.622 L 197.059 67.622 L 197.489 67.574 L 197.92 63.797 L 198.254 63.94 L 199.019 67.765 C 196.479 67.67 193.685 68.008 191.656 69.678 L 191.656 69.678 L 191.895 70.013 L 192.182 70.108 C 194.121 69.142 196.354 68.909 198.493 68.961 L 198.493 68.961 L 199.115 69.2 C 198.926 71.208 198.044 74.391 195.433 73.933 C 194.682 73.802 193.908 73.468 193.234 73.12 C 192.411 72.694 191.659 72.133 191.034 71.447 L 191.034 71.447 L 190.891 71.686 L 191.082 72.164 Q 190.763 72.324 190.843 72.882 Q 188.99 72.152 187.926 70.634 L 186.922 68.674 L 186.874 69.295 C 187.561 71.268 188.841 72.963 190.652 74.029 L 190.652 74.029 L 190.795 73.981 Q 190.997 73.226 191.608 72.882 Q 192.445 73.67 193.664 74.077 L 193.042 75.177 L 192.899 75.129 Q 192.959 74.639 192.66 74.507 Q 192.187 74.894 192.23 75.798 L 192.564 75.846 C 192.95 75.795 193.329 75.639 193.568 75.32 L 193.568 75.32 L 193.903 74.125 L 195.146 74.507 C 195.373 74.451 195.734 74.391 195.864 74.651 L 195.864 74.651 L 195.72 75.272 C 195.435 75.196 194.494 75.185 194.834 75.752 C 195.037 76.09 195.666 76.137 195.997 76.143 C 196.359 76.149 196.777 75.947 197.081 75.797 C 197.518 75.581 197.92 75.292 198.254 74.938 L 198.254 74.938 L 197.824 74.698 C 197.532 75.33 196.838 75.49 196.198 75.463 L 196.198 75.463 L 196.15 74.842 L 196.294 74.507 C 197.469 74.395 198.639 73.962 199.354 72.977 L 199.354 72.977 L 199.306 73.121 Q 199.253 75.506 197.824 76.515 Q 196.906 77.319 194.955 77.089 Q 190.951 76.073 188.691 73.312 Q 183.628 67.713 183.623 57.055 Q 183.734 52.288 185.87 49.548 L 186.253 49.644 L 186.301 49.5 L 186.157 49.261 L 187.209 48.783 Z  M 180.228 48.879 L 180.706 49.07 L 180.898 48.974 L 181.232 49.883 Q 180.858 50.178 181.041 51.03 Q 181.393 51.443 181.328 52.274 Q 180.945 52.8 179.654 52.417 L 179.129 52.274 C 179.368 52.074 179.525 51.797 179.609 51.499 C 179.821 50.754 179.216 49.632 179.941 49.07 L 179.941 49.07 L 180.228 48.879 Z  M 178.411 49.261 L 179.224 49.309 Q 179.334 50.615 178.985 51.461 Q 178.115 51.422 177.79 50.839 L 177.025 49.596 L 178.411 49.261 Z " fill-rule="evenodd" fill="rgb(253,253,253)"/><path d=" M 188.644 49.453 C 188.676 49.781 188.844 50.065 189.17 50.17 L 189.17 50.17 L 189.026 50.122 C 188.677 50.209 188.158 50.17 188.334 49.68 C 188.383 49.542 188.504 49.47 188.644 49.453 L 188.644 49.453 Z " fill="rgb(62,66,137)"/><path d=" M 171.335 49.644 L 172.339 50.457 L 171.765 52.082 L 171.909 52.321 L 172.052 52.369 L 172.148 53.325 Q 170.713 53.373 169.9 54.043 Q 169.183 54.903 167.605 54.903 L 167.557 54.664 L 167.988 53.756 C 168.28 53.801 168.629 53.762 168.705 53.421 L 168.705 53.421 L 169.327 52.226 C 169.985 52.151 170.624 51.886 171 51.317 L 171 51.317 L 171.335 49.644 Z " fill="rgb(253,253,253)"/><path d=" M 211.403 49.644 L 211.738 49.787 L 211.929 50.744 L 207.482 52.226 L 207.148 51.413 L 208.391 50.839 L 211.403 49.644 Z " fill="rgb(62,66,137)"/><path d=" M 181.758 49.931 L 183.432 50.552 L 182.619 51.461 L 181.854 51.748 C 181.55 51.403 181.557 50.884 181.615 50.457 L 181.615 50.457 L 181.758 49.931 Z  M 175.638 50.026 Q 176.331 50.05 176.547 50.552 Q 175.678 51.166 175.303 52.274 Q 175.483 53.003 176.116 53.278 L 176.547 53.517 L 175.782 55.334 L 176.212 55.86 L 176.355 55.907 L 176.164 57.82 L 176.499 58.25 L 177.359 58.346 C 177.74 57.958 178.837 57.536 179.205 58.078 C 179.316 58.241 179.358 58.439 179.368 58.633 L 179.368 58.633 L 179.702 58.489 L 179.607 58.107 C 179.803 57.89 180.159 57.91 180.42 57.963 C 181.264 58.138 182.09 58.441 182.81 58.92 L 182.81 58.92 L 182.954 58.872 Q 183.097 59.733 182.523 59.876 Q 181.187 61.122 178.603 61.119 Q 177.039 60.722 176.26 59.541 Q 174.623 57.448 174.204 54.138 L 174.012 54.043 L 173.439 54.712 L 173.247 54.808 L 172.913 54.569 C 172.581 53.895 172.56 53.103 172.626 52.369 L 172.626 52.369 L 173.343 51.556 L 174.108 52.035 C 174.51 51.731 174.473 51.135 174.395 50.696 L 174.395 50.696 L 175.638 50.026 Z " fill-rule="evenodd" fill="rgb(253,253,253)"/><path d=" M 165.119 50.504 L 166.458 51.939 L 165.119 50.504 Z  M 189.695 50.504 L 189.887 50.887 L 189.982 50.696 L 190.03 50.839 C 189.89 51.084 189.737 50.944 189.648 50.744 L 189.648 50.744 L 189.695 50.504 Z  M 190.843 50.6 L 190.939 50.791 L 192.134 50.839 L 190.939 50.887 L 190.843 50.6 Z  M 174.299 50.696 L 174.251 50.839 C 174.351 51.191 174.49 51.788 174.108 52.035 L 174.108 52.035 L 173.917 51.748 L 174.156 51.891 C 174.057 51.539 173.918 50.943 174.299 50.696 L 174.299 50.696 Z " fill-rule="evenodd" fill="rgb(166,167,200)"/><path d=" M 176.786 50.887 L 177.12 51.03 L 177.216 51.795 L 177.025 52.274 Q 177.511 52.648 178.459 52.56 Q 177.73 52.979 176.499 52.895 L 176.068 52.56 L 175.973 51.891 L 176.594 50.983 L 176.786 50.887 Z " fill="rgb(253,253,253)"/><path d=" M 164.928 50.983 L 166.314 52.465 L 166.219 52.465 L 164.928 50.983 Z " fill="rgb(166,167,200)"/><path d=" M 184.053 51.174 L 184.101 51.317 L 183.862 51.939 C 183.708 51.97 183.492 51.977 183.432 51.795 L 183.432 51.795 L 183.862 51.269 L 184.053 51.174 Z " fill="rgb(253,253,253)"/><line x1="188.739" y1="51.556" x2="188.357" y2="52.035"/><path d=" M 186.253 51.652 L 187.353 51.987 C 187.005 52.285 186.862 52.738 186.827 53.182 L 186.827 53.182 L 185.966 53.278 L 185.727 52.943 L 186.109 52.656 C 186.164 52.454 186.236 52.12 186.014 51.987 L 186.014 51.987 L 186.253 51.652 Z " fill="rgb(253,253,253)"/><path d=" M 180.133 52.417 L 180.945 52.465 L 180.133 52.513 L 180.133 52.417 Z  M 193.138 52.513 L 193.521 52.991 L 193.138 52.513 Z " fill-rule="evenodd" fill="rgb(166,167,200)"/><path d=" M 182.236 52.704 C 182.68 52.669 183.193 52.708 183.527 53.039 L 183.527 53.039 L 183.384 53.469 C 182.955 53.456 182.502 53.352 182.189 53.039 L 182.189 53.039 L 182.236 52.704 Z  M 178.794 52.8 Q 180.798 52.66 181.902 53.421 Q 181.358 54.025 180.228 54.043 Q 179.565 53.606 178.555 53.517 L 178.459 53.23 L 178.603 52.895 L 178.794 52.8 Z " fill-rule="evenodd" fill="rgb(253,253,253)"/><path d=" M 210.16 52.8 C 210.479 52.794 210.801 52.817 211.111 52.894 C 213.412 53.464 213.551 57.334 211.321 58.12 C 210.078 58.558 208.625 57.824 208.214 56.575 C 207.824 55.391 208.103 53.883 209.204 53.182 L 209.204 53.182 L 210.16 52.8 Z " fill="rgb(62,66,137)"/><path d=" M 161.198 52.895 L 161.294 53.086 C 161.183 52.902 161.068 53.04 161.007 53.182 L 161.007 53.182 L 160.385 53.708 L 161.198 52.895 Z  M 180.133 52.895 L 180.945 52.943 L 180.133 52.991 L 180.133 52.895 Z " fill-rule="evenodd" fill="rgb(166,167,200)"/><path d=" M 161.198 52.991 L 162.107 54.282 L 162.394 54.856 L 162.059 55.286 C 161.579 55.209 161.108 55.021 160.768 54.664 L 160.768 54.664 L 160.385 53.804 L 161.198 52.991 Z " fill="rgb(253,253,253)"/><path d=" M 209.108 53.182 L 208.63 53.756 L 209.108 53.182 Z  M 211.881 53.278 L 212.264 53.756 L 211.881 53.278 Z " fill-rule="evenodd" fill="rgb(166,167,200)"/><path d=" M 145.324 53.373 L 145.372 54.282 L 145.276 54.282 L 145.324 53.373 Z " fill="rgb(61,64,136)"/><path d=" M 146.089 53.373 L 146.137 54.569 L 146.041 54.569 L 146.089 53.373 Z " fill="rgb(166,167,200)"/><path d=" M 166.553 53.469 L 167.462 53.708 C 167.323 54.279 167.043 55.013 166.553 55.382 C 166.116 55.711 165.333 55.638 164.832 55.573 L 164.832 55.573 L 164.21 55.238 L 164.976 54.664 L 165.31 53.947 C 165.762 53.933 166.239 53.816 166.553 53.469 L 166.553 53.469 Z  M 158.999 53.565 C 159.29 53.533 159.786 53.555 159.907 53.899 C 160.115 54.49 160.266 55.006 160.816 55.382 L 160.816 55.382 L 161.724 55.716 C 161.934 56.695 160.781 56.943 160.021 57.073 C 159.476 57.166 158.84 56.947 158.465 56.537 C 157.925 55.946 158.01 55.194 158.315 54.495 C 158.471 54.138 158.7 53.815 158.999 53.565 L 158.999 53.565 Z  M 171.526 53.947 L 172.243 53.995 C 172.264 54.468 172.43 54.948 172.865 55.19 L 172.865 55.19 L 173.439 55.286 L 173.821 55.095 L 173.965 55.621 L 173.439 56.242 L 173.965 56.003 L 174.012 55.86 L 174.443 57.246 C 174.243 57.467 173.893 57.438 173.63 57.39 L 173.63 57.39 L 172.769 57.198 L 172.626 57.533 L 173.965 58.011 L 173.247 59.207 L 173.104 59.159 L 172.674 58.633 L 172.482 58.537 L 172.148 58.776 L 171.861 59.541 L 172.1 59.589 L 172.482 59.494 L 172.913 59.828 L 173.2 60.498 L 172.769 60.545 L 171.813 60.067 L 171.574 60.211 L 171.478 61.263 C 171.676 61.372 171.62 61.66 171.574 61.836 L 171.574 61.836 L 171.43 61.789 C 170.187 61.677 168.846 61.713 167.701 62.267 L 167.701 62.267 L 167.653 61.358 L 168.562 60.354 L 167.605 60.45 L 167.557 59.828 L 167.701 59.589 L 168.609 59.35 C 166.646 59.107 167.531 56.494 168.466 55.573 L 168.466 55.573 L 169.04 55.477 L 169.088 55.621 L 168.227 56.099 L 168.801 56.959 L 167.653 57.916 L 168.753 58.25 C 169.288 56.601 170.201 55.081 171.526 53.947 L 171.526 53.947 Z  M 177.551 54.043 C 177.852 54.014 178.297 54.067 178.269 54.45 C 178.246 54.76 178.183 55.075 177.933 55.286 L 177.933 55.286 L 177.646 55.382 Q 177.426 55.076 176.738 55.238 Q 176.943 54.44 177.551 54.043 Z  M 210.256 54.138 C 211.03 54.045 211.702 54.32 211.922 55.114 C 212.001 55.403 211.978 55.712 211.929 56.003 L 211.929 56.003 L 211.499 56.625 C 211.161 56.976 210.607 56.972 210.16 56.912 L 210.16 56.912 L 209.347 56.29 C 209.118 55.998 209.115 55.588 209.156 55.238 L 209.156 55.238 L 209.777 54.33 L 210.256 54.138 Z  M 178.985 54.425 L 179.607 54.664 L 179.559 54.808 L 178.507 54.999 L 178.459 54.856 L 178.603 54.521 L 178.985 54.425 Z  M 181.089 54.425 L 181.424 54.473 L 181.185 54.999 Q 180.715 54.703 179.894 54.76 Q 180.226 54.328 181.089 54.425 Z  M 181.758 54.425 L 182.476 54.951 L 182.667 55.429 L 182.428 55.477 L 181.615 55.142 L 181.758 54.425 Z " fill-rule="evenodd" fill="rgb(253,253,253)"/><path d=" M 148.288 54.808 L 152.353 56.386 L 152.305 57.485 L 149.866 57.916 L 152.161 59.063 L 152.257 59.924 C 152.038 60.242 151.587 60.22 151.253 60.163 L 151.253 60.163 L 148.384 60.832 L 148.336 60.019 L 150.44 59.35 L 150.392 59.207 L 148.145 58.298 L 148.193 57.485 L 150.727 56.768 L 148.145 55.812 L 148.288 54.808 Z " fill="rgb(62,66,137)"/><path d=" M 179.941 54.808 L 180.754 54.856 L 179.941 54.903 L 179.941 54.808 Z " fill="rgb(166,167,200)"/><path d=" M 179.75 55.286 Q 180.626 55.27 181.137 55.621 Q 180.818 56.258 180.898 57.294 Q 179.909 56.944 178.459 57.055 Q 178.208 56.493 178.364 55.525 L 179.368 55.382 L 179.415 55.525 C 179.199 55.787 179.19 56.161 179.224 56.481 L 179.224 56.481 L 179.415 56.386 L 179.75 55.286 Z  M 163.685 55.477 C 164.174 56.055 164.977 56.175 165.693 56.147 L 165.693 56.147 L 166.458 55.955 L 166.506 56.29 L 166.267 56.72 C 165.408 56.85 164.39 56.897 163.637 56.386 L 163.637 56.386 L 163.541 55.716 L 163.685 55.477 Z " fill-rule="evenodd" fill="rgb(253,253,253)"/><path d=" M 188.261 55.477 L 189.17 55.525 L 188.261 55.573 L 188.261 55.477 Z " fill="rgb(166,167,200)"/><path d=" M 177.838 55.573 L 177.981 55.621 C 177.87 56.133 177.777 56.776 178.077 57.246 L 178.077 57.246 L 176.881 57.868 C 176.52 57.427 176.543 56.592 176.738 56.099 C 176.873 55.757 177.529 55.61 177.838 55.573 L 177.838 55.573 Z  M 181.471 55.668 Q 182.527 55.856 183.049 56.577 Q 183.032 57.707 182.428 58.25 Q 181.483 58.047 181.041 57.342 L 181.471 55.668 Z " fill-rule="evenodd" fill="rgb(253,253,253)"/><path d=" M 146.089 56.147 L 146.137 57.438 L 146.041 57.438 L 146.089 56.147 Z  M 176.69 56.147 L 176.738 57.438 L 176.642 57.438 L 176.69 56.147 Z  M 183.671 56.147 L 183.719 56.959 L 183.623 56.959 L 183.671 56.147 Z  M 152.4 56.338 L 152.448 57.342 L 152.353 57.342 L 152.4 56.338 Z " fill-rule="evenodd" fill="rgb(166,167,200)"/><path d=" M 145.324 56.529 L 145.372 57.438 L 145.276 57.438 L 145.324 56.529 Z " fill="rgb(61,64,136)"/><path d=" M 164.832 56.72 L 166.219 56.768 L 164.832 56.816 L 164.832 56.72 Z  M 188.93 56.72 L 188.978 58.107 L 188.883 58.107 L 188.93 56.72 Z  M 178.411 56.816 L 178.507 57.103 L 180.18 57.151 L 178.411 57.198 L 178.411 56.816 Z " fill-rule="evenodd" fill="rgb(166,167,200)"/><path d=" M 163.493 57.007 C 164.256 57.333 165.113 57.387 165.932 57.342 L 165.932 57.342 L 165.501 57.868 L 164.067 57.963 L 163.541 57.629 L 163.493 57.007 Z " fill="rgb(253,253,253)"/><path d=" M 164.832 57.198 L 166.027 57.246 L 164.832 57.294 L 164.832 57.198 Z  M 186.157 57.39 L 186.205 58.489 L 186.109 58.489 L 186.157 57.39 Z " fill-rule="evenodd" fill="rgb(166,167,200)"/><path d=" M 195.911 57.485 L 196.246 57.533 C 197.013 58.264 197.155 59.396 197.107 60.402 L 197.107 60.402 L 196.868 61.31 L 196.533 61.263 L 195.959 58.776 C 195.762 58.433 195.74 58.014 195.768 57.629 L 195.768 57.629 L 195.911 57.485 Z " fill="rgb(253,253,253)"/><line x1="163.015" y1="57.581" x2="162.633" y2="58.059"/><path d=" M 163.015 57.677 L 163.493 58.25 C 163.999 58.63 164.733 58.553 165.31 58.442 L 165.31 58.442 L 166.027 58.107 L 166.171 57.868 L 166.697 58.011 L 166.267 58.537 L 164.88 59.637 L 165.549 59.733 L 164.593 60.976 L 164.736 61.024 L 166.458 59.972 Q 166.501 61.745 167.366 62.697 Q 166.554 63.989 164.45 63.988 Q 163.414 63.59 162.776 62.793 Q 161.64 61.92 161.724 59.828 Q 162.047 58.43 163.015 57.677 Z " fill="rgb(253,253,253)"/><path d=" M 163.015 57.677 L 163.493 58.25 C 164.008 58.636 164.72 58.555 165.31 58.442 L 165.31 58.442 L 165.31 58.442 L 166.027 58.107 L 166.171 57.868 L 166.697 58.011 L 166.267 58.537 L 164.88 59.637 L 165.549 59.733 L 164.593 60.976 L 164.736 61.024 L 166.458 59.972 Q 166.501 61.745 167.366 62.697 Q 166.554 63.989 164.45 63.988 Q 163.414 63.59 162.776 62.793 Q 161.64 61.92 161.724 59.828 Q 162.047 58.43 163.015 57.677 Z  M 174.777 57.963 L 174.825 58.107 C 174.238 59.209 173.968 60.728 174.232 61.952 C 174.295 62.244 174.393 62.53 174.539 62.792 C 174.992 63.604 175.688 63.832 176.594 63.701 L 176.594 63.701 L 178.889 62.936 C 179.196 63.318 179.189 63.864 179.129 64.323 L 179.129 64.323 L 178.889 64.753 C 178.45 64.722 178.294 64.922 178.112 65.267 C 177.718 66.014 178.065 67.273 178.507 67.909 L 178.507 67.909 L 179.033 68.148 L 178.794 68.196 L 172.913 64.61 C 172.738 63.956 172.52 62.877 173.247 62.458 L 173.247 62.458 L 173.486 62.315 C 173.624 60.801 173.991 59.278 174.777 57.963 L 174.777 57.963 Z " fill-rule="evenodd" fill="rgb(253,253,253)"/><path d=" M 166.171 58.537 L 165.788 59.015 L 166.171 58.537 Z  M 172.674 58.633 L 173.056 59.111 L 172.674 58.633 Z " fill-rule="evenodd" fill="rgb(166,167,200)"/><path d=" M 175.16 58.729 C 175.504 59.402 175.952 60.022 176.499 60.545 L 176.499 60.545 L 177.407 61.263 L 176.929 61.932 L 177.551 61.98 L 178.316 61.502 L 179.129 61.645 L 178.794 62.458 C 177.897 62.972 176.852 63.174 175.829 63.223 L 175.829 63.223 L 175.112 62.793 C 174.623 62.045 174.627 61.063 174.73 60.211 L 174.73 60.211 L 175.16 58.729 Z " fill="rgb(253,253,253)"/><path d=" M 183.001 58.729 L 183.049 59.446 L 182.667 59.733 C 183.049 59.559 183.058 59.089 183.001 58.729 L 183.001 58.729 Z  M 183.671 59.207 L 183.719 60.019 L 183.623 60.019 L 183.671 59.207 Z " fill-rule="evenodd" fill="rgb(166,167,200)"/><path d=" M 208.726 59.589 L 211.212 59.589 Q 212.001 59.374 212.216 59.733 Q 212.637 62.018 211.69 62.936 L 210.542 63.032 L 210.017 62.601 L 209.873 62.171 L 208.63 63.032 L 208.582 62.123 L 209.825 61.167 L 209.777 60.641 L 208.678 60.593 L 208.726 59.589 Z " fill="rgb(62,66,137)"/><path d=" M 176.403 59.685 L 177.073 60.45 L 176.403 59.685 Z  M 153.835 59.972 L 153.883 62.41 L 153.787 62.41 L 153.835 59.972 Z  M 206.909 59.972 L 206.956 62.315 L 206.861 62.315 L 206.909 59.972 Z  M 167.51 60.067 L 167.605 60.45 L 167.94 60.498 L 167.605 60.545 C 167.402 60.456 167.435 60.237 167.51 60.067 L 167.51 60.067 Z " fill-rule="evenodd" fill="rgb(166,167,200)"/><path d=" M 183.001 60.067 L 183.145 61.167 C 182.851 61.546 181.553 61.858 181.71 61.071 L 181.71 61.071 L 183.001 60.067 Z " fill="rgb(253,253,253)"/><path d=" M 168.275 60.354 L 168.466 60.45 L 168.609 60.402 L 167.749 61.167 L 168.37 60.45 L 168.275 60.354 Z  M 174.204 60.545 L 174.251 61.454 L 174.156 61.454 L 174.204 60.545 Z  M 174.682 60.545 L 174.73 61.454 L 174.634 61.454 L 174.682 60.545 Z " fill-rule="evenodd" fill="rgb(166,167,200)"/><path d=" M 210.542 60.641 L 211.355 60.689 C 211.45 61.066 211.547 61.669 211.116 61.884 L 211.116 61.884 L 210.59 61.645 C 210.382 61.356 210.447 60.959 210.542 60.641 L 210.542 60.641 Z " fill="rgb(253,253,253)"/><path d=" M 211.403 60.641 L 211.451 61.55 L 211.355 61.55 L 211.403 60.641 Z  M 196.963 61.024 L 197.011 61.263 C 196.95 61.445 196.735 61.437 196.581 61.406 L 196.581 61.406 L 196.437 61.167 L 196.533 61.167 L 196.581 61.31 L 196.915 61.263 L 196.963 61.024 Z " fill-rule="evenodd" fill="rgb(166,167,200)"/><path d=" M 172.482 61.119 C 173.003 61.069 173.301 61.261 173.123 61.784 C 172.947 62.302 172.236 62.527 171.956 61.932 L 171.956 61.932 L 172.482 61.119 Z  M 180.993 61.215 L 181.232 61.263 L 181.328 61.741 C 181.008 62.469 180.158 62.543 179.463 62.458 L 179.463 62.458 L 179.415 62.219 L 179.941 61.502 C 180.306 61.5 180.692 61.435 180.993 61.215 L 180.993 61.215 Z " fill-rule="evenodd" fill="rgb(253,253,253)"/><path d=" M 170.379 61.789 L 171.478 61.836 L 170.379 61.884 L 170.379 61.789 Z " fill="rgb(166,167,200)"/><path d=" M 182.906 61.789 L 183.241 61.836 L 183.527 63.653 C 182.673 64.205 181.604 64.314 180.611 64.275 L 180.611 64.275 L 180.372 63.653 C 180.696 62.503 181.74 61.809 182.906 61.789 L 182.906 61.789 Z " fill="rgb(253,253,253)"/><path d=" M 181.185 62.362 L 180.706 62.936 L 181.185 62.362 Z  M 173.056 62.554 L 172.913 62.793 L 172.865 64.657 L 172.817 62.793 L 173.056 62.554 Z " fill-rule="evenodd" fill="rgb(166,167,200)"/><path d=" M 179.559 62.936 L 179.941 63.032 L 180.085 62.984 C 179.856 63.276 179.853 63.686 179.894 64.036 L 179.894 64.036 L 180.42 64.753 L 181.089 64.849 L 181.232 64.801 C 180.933 65.1 180.85 65.541 180.85 65.948 L 180.85 65.948 L 181.232 66.809 L 180.706 67.431 Q 180.119 67.8 178.985 67.622 Q 178.674 67.55 178.746 67.096 Q 179.654 66.427 179.989 65.183 Q 179.192 64.572 179.559 62.936 Z " fill="rgb(253,253,253)"/><path d=" M 208.63 63.701 L 209.156 64.036 C 208.866 64.145 208.638 64.383 208.556 64.685 C 208.441 65.114 208.462 65.509 209.012 65.422 L 209.012 65.422 L 209.347 65.183 L 210.064 64.371 L 210.638 64.275 L 211.355 64.801 L 211.451 65.47 L 211.021 66.57 L 210.59 66.331 C 210.982 66.076 211.112 65.052 210.447 65.136 L 210.447 65.136 L 209.73 65.757 L 209.299 66.379 C 208.308 66.512 207.738 65.772 207.913 64.801 C 207.991 64.366 208.267 63.948 208.63 63.701 L 208.63 63.701 Z " fill="rgb(62,66,137)"/><path d=" M 183.48 64.179 L 183.719 64.323 Q 184.149 66.857 185.153 68.817 Q 184.415 69.227 183.193 69.152 L 182.476 68.817 C 182.094 68.289 182.157 67.58 182.666 67.203 C 182.923 67.013 183.22 66.887 183.527 66.809 L 183.527 66.809 L 183.384 66.474 L 182.141 66.953 C 181.457 66.729 181.352 66.002 181.424 65.375 L 181.424 65.375 L 181.95 64.753 C 182.39 64.416 182.935 64.248 183.48 64.179 L 183.48 64.179 Z  M 179.081 65.136 L 179.415 65.183 C 179.337 65.66 179.114 66.111 178.698 66.379 L 178.698 66.379 L 178.555 66.331 C 178.474 65.948 178.438 65.395 178.889 65.231 L 178.889 65.231 L 179.081 65.136 Z  M 181.663 67.144 C 181.615 67.962 181.736 68.901 182.428 69.439 L 182.428 69.439 L 182.954 69.678 Q 182.911 70.209 182.523 70.395 Q 180.696 71.723 177.933 72.116 Q 176.905 71.423 176.738 69.869 L 179.941 68.291 C 180.641 68.132 181.275 67.76 181.663 67.144 L 181.663 67.144 Z " fill-rule="evenodd" fill="rgb(253,253,253)"/><path d=" M 188.07 67.335 L 188.165 67.622 L 189.074 67.957 L 189.17 68.339 L 189.026 68.387 L 188.357 68.1 L 187.974 68.674 L 187.257 68.052 L 187.161 67.765 L 187.4 67.622 L 187.879 67.909 C 188.084 67.798 188.096 67.54 188.07 67.335 L 188.07 67.335 Z " fill="rgb(62,66,137)"/><path d=" M 199.067 67.718 L 199.115 67.861 L 198.398 67.909 L 198.398 67.813 C 198.599 67.868 198.934 67.94 199.067 67.718 L 199.067 67.718 Z " fill="rgb(166,167,200)"/><path d=" M 158.903 68.004 Q 159.849 67.967 160.481 68.244 Q 160.357 70.041 160.959 71.112 Q 161.7 72.093 161.724 73.79 Q 161.325 74.108 161.533 75.033 L 162.68 75.703 L 162.537 76.133 L 162.059 76.229 Q 161.383 76.139 161.055 75.703 Q 160.996 74.9 160.529 74.507 Q 159.668 74.985 158.138 74.794 Q 156.608 74.603 155.747 75.081 Q 155.006 74.101 155.126 72.26 L 155.843 71.351 C 156.615 70.951 157.318 70.421 157.899 69.774 L 157.899 69.774 L 158.616 68.1 L 158.903 68.004 Z " fill="rgb(253,253,253)"/><path d=" M 160.051 68.674 L 160.194 68.722 L 159.812 70.347 C 159.924 70.897 160.133 71.433 160.481 71.877 L 160.481 71.877 L 160.338 71.83 L 160.003 71.591 C 159.531 71.021 159.597 70.162 159.716 69.487 L 159.716 69.487 L 160.051 68.674 Z " fill="rgb(62,66,137)"/><path d=" M 172.769 68.769 Q 174.796 68.846 176.451 69.295 Q 176.16 69.578 176.164 70.156 L 176.355 70.73 Q 175.566 71.088 174.204 70.873 Q 173.69 70.239 173.534 69.248 L 173.2 69.391 C 173.201 70.121 173.386 70.905 174.012 71.351 L 174.012 71.351 L 175.351 71.447 C 175.638 71.088 176.204 71.168 176.594 71.256 L 176.594 71.256 L 176.738 71.495 C 176.252 72.128 175.106 72.365 174.456 71.912 C 173.597 71.313 172.164 70.425 172.339 69.2 L 172.339 69.2 L 172.578 68.865 L 172.769 68.769 Z " fill="rgb(253,253,253)"/><path d=" M 180.037 68.769 C 180.191 68.739 180.407 68.731 180.467 68.913 L 180.467 68.913 L 180.324 69.152 Q 179.033 69.344 178.077 69.869 Q 178.223 70.487 178.698 70.778 L 180.993 70.108 L 181.137 70.347 C 180.393 70.806 179.553 71.091 178.698 71.256 L 178.698 71.256 L 177.885 70.539 Q 177.614 70.284 177.694 69.678 Q 178.612 68.97 180.037 68.769 Z " fill="rgb(62,66,137)"/><path d=" M 197.154 68.865 L 198.063 68.913 L 197.154 68.961 L 197.154 68.865 Z " fill="rgb(166,167,200)"/><path d=" M 170.665 69.056 L 171.861 69.104 L 171.765 69.582 C 172.045 70.598 172.675 71.456 173.63 71.925 L 173.63 71.925 L 174.634 72.547 Q 174.347 72.834 174.443 73.503 Q 174.763 75.287 175.734 76.42 L 176.786 76.515 L 178.411 76.133 L 178.172 76.468 C 177.461 76.986 177.303 78.099 177.761 78.815 C 177.93 79.079 178.152 79.306 178.411 79.48 L 178.411 79.48 L 179.224 80.006 L 178.698 80.627 Q 178.294 81.083 177.359 81.01 Q 174.945 80.651 173.773 79.05 Q 172.979 77.31 171.622 76.133 Q 171.159 75.543 169.996 75.655 Q 169.207 75.774 168.896 75.416 L 168.37 74.316 L 168.323 74.746 C 168.308 75.059 168.332 75.387 168.47 75.674 C 168.739 76.232 169.365 76.075 169.897 76.208 C 171.015 76.487 172.296 77.171 172.148 78.476 L 172.148 78.476 L 171.526 79.289 C 171.165 79.219 170.663 79.18 170.426 79.528 L 170.426 79.528 L 170.187 80.054 L 169.135 79.958 L 168.562 80.436 C 168.452 80.238 168.164 80.294 167.988 80.341 L 167.988 80.341 L 166.745 81.201 L 166.792 81.058 L 167.079 80.006 L 166.84 79.671 L 166.267 79.575 L 165.98 79.671 C 165.914 79.189 165.714 78.72 165.31 78.428 L 165.31 78.428 L 164.306 78.093 C 164.389 77.79 164.495 77.288 164.163 77.089 L 164.163 77.089 L 163.541 76.85 L 163.637 75.989 Q 163.211 75.793 163.159 75.224 Q 164.206 74.646 164.402 73.216 L 164.163 72.882 L 164.019 72.834 L 164.593 72.356 C 164.525 71.994 164.49 71.496 164.832 71.256 L 164.832 71.256 L 165.071 71.112 C 165.606 70.583 165.921 69.881 166.075 69.152 L 166.075 69.152 L 167.318 70.491 L 167.462 70.539 C 167.543 70.818 167.661 71.291 167.366 71.495 L 167.366 71.495 L 167.51 71.734 C 168.06 71.844 168.157 71.102 168.39 70.749 C 168.671 70.323 169.02 69.944 169.422 69.63 L 169.422 69.63 L 170.665 69.056 Z " fill="rgb(253,253,253)"/><path d=" M 160.624 69.152 L 160.672 70.06 L 160.577 70.06 L 160.624 69.152 Z " fill="rgb(166,167,200)"/><path d=" M 185.201 69.343 L 185.44 69.487 L 185.918 70.539 C 185.316 70.929 184.561 71 183.862 70.969 L 183.862 70.969 L 183.336 70.634 Q 183.207 69.884 183.575 69.63 Q 184.609 69.707 185.201 69.343 Z " fill="rgb(253,253,253)"/><path d=" M 159.668 69.726 L 159.716 70.825 L 159.62 70.825 L 159.668 69.726 Z  M 169.231 69.726 L 168.848 70.204 L 169.231 69.726 Z " fill-rule="evenodd" fill="rgb(166,167,200)"/><path d=" M 189.6 69.726 C 190.345 69.577 189.95 70.544 189.6 70.778 L 189.6 70.778 L 188.93 70.969 C 188.5 70.825 188.449 70.357 188.5 69.965 L 188.5 69.965 L 188.644 69.917 L 189.026 70.491 L 189.361 70.347 L 189.6 69.726 Z " fill="rgb(62,66,137)"/><path d=" M 200.023 70.204 L 200.406 70.3 L 201.984 70.539 L 202.079 71.304 L 201.936 71.256 C 201.433 71.231 201.001 71.436 200.932 71.973 L 200.932 71.973 L 200.645 72.738 Q 200.76 73.484 201.267 73.838 Q 201.769 74.005 201.601 74.842 Q 201.362 74.985 201.506 75.511 Q 201.627 76.394 202.223 76.802 L 203.227 77.615 C 204.26 78.748 204.557 80.337 204.566 81.823 L 204.566 81.823 L 204.327 82.157 C 203.885 82.442 203.279 82.357 202.797 82.253 L 202.797 82.253 L 201.84 82.062 Q 201.625 82.134 201.697 82.492 Q 202.642 82.933 204.135 82.827 L 204.805 82.54 L 205.713 82.97 Q 205.803 83.729 205.474 84.07 Q 204.279 84.596 203.466 85.504 Q 202.852 86.23 201.458 86.174 L 200.358 85.361 C 200.363 84.654 200.272 83.921 199.951 83.282 C 199.761 82.903 199.371 82.734 199.283 82.301 C 199.154 81.669 199.454 81.05 199.312 80.412 C 199.201 79.911 198.718 79.725 198.689 79.165 C 198.664 78.689 198.725 78.137 199.029 77.75 C 199.365 77.322 199.964 77.459 199.88 76.754 L 199.88 76.754 L 199.641 76.611 C 199.608 77.103 199.243 77.308 198.78 77.28 L 198.78 77.28 L 198.445 76.754 C 200.1 75.227 200.263 72.738 200.071 70.634 L 200.071 70.634 L 200.023 70.204 Z " fill="rgb(253,253,253)"/><path d=" M 172.674 70.3 L 173.439 71.16 L 172.674 70.3 Z  M 200.023 70.586 L 200.071 72.834 L 199.976 72.834 L 200.023 70.586 Z  M 178.029 70.682 L 178.411 71.16 L 178.029 70.682 Z " fill-rule="evenodd" fill="rgb(166,167,200)"/><path d=" M 182.81 70.778 L 183.097 71.16 L 183.719 71.495 Q 183.406 73.334 182.523 74.603 Q 181.365 74.614 180.945 73.886 L 181.328 72.547 L 181.185 72.308 C 180.475 72.219 180.441 73.543 180.467 73.981 L 180.467 73.981 L 181.185 74.794 L 182.38 75.224 L 182.141 75.846 C 181.651 75.925 181.015 75.908 180.802 75.368 L 180.802 75.368 L 179.224 74.077 C 179.644 73.183 180.239 72.374 180.993 71.734 L 180.993 71.734 L 182.81 70.778 Z " fill="rgb(253,253,253)"/><path d=" M 188.07 70.778 L 188.835 71.638 L 188.07 70.778 Z  M 174.395 70.873 L 175.399 70.921 L 174.395 70.969 L 174.395 70.873 Z  M 185.966 71.065 L 185.918 71.208 L 185.87 72.021 L 185.823 71.208 L 185.966 71.065 Z " fill-rule="evenodd" fill="rgb(166,167,200)"/><path d=" M 186.062 71.065 L 186.396 71.208 L 186.874 72.069 C 186.678 72.23 186.122 72.367 185.947 72.111 C 185.767 71.847 185.84 71.495 185.918 71.208 L 185.918 71.208 L 186.062 71.065 Z " fill="rgb(253,253,253)"/><path d=" M 185.201 71.256 L 185.44 71.399 L 185.392 72.116 L 185.297 71.351 L 185.201 71.256 Z  M 174.395 71.351 L 175.399 71.399 L 174.395 71.447 L 174.395 71.351 Z " fill-rule="evenodd" fill="rgb(166,167,200)"/><path d=" M 185.01 71.351 L 185.344 71.399 C 185.273 71.894 185.32 72.505 185.87 72.69 L 185.87 72.69 L 186.205 72.738 Q 186.359 74.422 185.966 75.559 Q 184.804 75.449 184.197 75.894 L 184.245 76.229 L 184.532 76.324 C 185.23 76.361 186.021 76.271 186.54 75.75 L 186.54 75.75 L 186.588 76.085 C 186.565 76.509 186.311 76.726 185.931 76.851 C 185.27 77.067 184.521 76.952 183.862 76.802 L 183.862 76.802 L 183.527 76.659 Q 183.249 75.933 183.336 74.842 Q 183.578 72.885 184.34 71.447 Q 184.866 71.591 185.01 71.351 Z " fill="rgb(253,253,253)"/><path d=" M 202.127 71.351 L 202.175 72.26 L 202.079 72.26 L 202.032 71.734 L 201.888 71.782 L 202.127 71.351 Z  M 177.359 71.543 L 177.742 72.021 L 177.359 71.543 Z  M 199.354 71.734 L 199.497 71.782 L 199.45 72.308 L 199.115 72.069 L 199.402 72.164 L 199.354 71.734 Z " fill-rule="evenodd" fill="rgb(166,167,200)"/><path d=" M 202.032 71.734 Q 201.894 75.267 203.992 76.563 Q 206.191 78.093 205.713 82.301 L 205.474 82.349 L 204.948 82.014 C 205.275 81.688 205.164 81.122 205.08 80.722 C 204.772 79.252 204.192 77.852 203.083 76.802 L 203.083 76.802 L 202.175 75.989 C 201.882 75.344 202.183 74.72 202.1 74.069 C 202.047 73.66 201.648 73.688 201.424 73.429 C 201.195 73.166 201.184 72.78 201.219 72.451 L 201.219 72.451 L 202.032 71.734 Z " fill="rgb(253,253,253)"/><line x1="188.548" y1="71.83" x2="188.93" y2="72.308"/><path d=" M 176.977 71.925 C 177.244 72.325 177.664 72.575 178.124 72.69 L 178.124 72.69 L 179.75 72.212 L 179.702 72.356 C 179.095 72.809 178.822 73.536 178.746 74.268 L 178.746 74.268 L 178.842 74.459 Q 178.03 74.939 176.69 74.89 Q 176.684 73.7 176.021 73.168 L 175.686 73.407 Q 175.808 74.72 176.499 75.463 Q 178.137 75.38 179.272 74.794 L 179.607 75.033 Q 178.359 76.033 176.021 75.942 Q 174.992 74.914 175.017 72.834 L 176.977 71.925 Z " fill="rgb(253,253,253)"/><path d=" M 177.073 71.925 L 177.455 72.403 L 177.073 71.925 Z  M 187.018 72.499 L 187.066 74.077 L 186.97 74.077 L 187.018 72.499 Z " fill-rule="evenodd" fill="rgb(166,167,200)"/><path d=" M 187.114 72.499 L 187.353 72.642 C 188.01 73.592 188.799 74.448 189.695 75.177 L 189.695 75.177 L 189.839 75.224 C 189.192 75.604 188.428 75.733 187.687 75.75 L 187.687 75.75 L 187.257 75.416 C 186.972 75.197 187.007 74.77 187.066 74.459 L 187.066 74.459 L 187.114 72.499 Z " fill="rgb(253,253,253)"/><path d=" M 186.253 72.69 L 186.301 73.503 L 186.205 73.503 L 186.253 72.69 Z  M 199.354 72.882 L 199.402 73.121 L 199.354 73.551 L 199.21 73.025 L 199.354 72.882 Z  M 189.791 73.073 C 189.944 73.4 190.307 74.141 190.795 73.886 L 190.795 73.886 L 190.747 74.029 L 189.791 73.073 Z  M 166.362 74.029 L 166.601 74.746 L 166.41 74.651 L 166.362 74.029 Z  M 189.217 74.603 L 189.695 75.177 L 189.217 74.603 Z " fill-rule="evenodd" fill="rgb(166,167,200)"/><path d=" M 166.649 75.081 C 167.046 76.097 167.651 77.029 168.466 77.759 L 168.466 77.759 L 169.135 77.854 L 170.952 77.185 L 170.474 77.759 C 169.786 78.258 168.842 78.618 168.044 78.216 C 167.027 77.704 166.666 76.081 166.649 75.081 L 166.649 75.081 Z " fill="rgb(62,66,137)"/><path d=" M 157.277 75.177 L 158.568 75.224 L 158.329 75.368 C 158.139 75.051 157.661 75.316 157.382 75.304 C 157.298 75.3 157.235 75.261 157.277 75.177 L 157.277 75.177 Z " fill="rgb(166,167,200)"/><path d=" M 156.704 75.272 L 158.282 75.32 C 157.375 75.453 156.476 75.754 155.747 76.324 L 155.747 76.324 L 155.7 76.181 L 155.939 75.463 L 156.704 75.272 Z  M 179.846 75.463 C 180.163 75.441 180.532 75.48 180.742 75.751 C 180.975 76.053 180.877 76.367 181.37 76.437 C 181.813 76.499 182.404 76.378 182.667 75.989 L 182.667 75.989 L 182.81 75.559 C 183.336 76.579 183.412 78.007 182.396 78.707 C 182.197 78.845 181.732 79.138 181.471 79.097 C 181.344 79.077 181.231 79.006 181.113 78.954 C 180.322 78.606 179.571 78.197 178.889 77.663 L 178.889 77.663 L 178.65 77.806 C 178.577 78.174 178.933 78.429 179.186 78.652 C 179.893 79.272 180.839 79.516 181.758 79.575 L 181.758 79.575 L 182.715 79.002 L 182.762 79.336 C 182.64 79.767 182.404 80.162 182.045 80.436 L 182.045 80.436 L 181.471 80.532 Q 179.593 79.876 178.268 78.667 Q 177.909 78.452 177.981 77.806 Q 178.528 76.489 179.559 75.655 L 179.846 75.463 Z " fill-rule="evenodd" fill="rgb(253,253,253)"/><path d=" M 181.185 75.655 C 181.317 75.92 181.646 75.93 181.902 75.894 L 181.902 75.894 L 181.376 75.942 L 181.185 75.655 Z " fill="rgb(166,167,200)"/><path d=" M 190.365 75.655 L 192.038 76.754 Q 191.773 78.837 192.517 79.91 Q 192.925 82.227 194.286 83.592 L 195.672 84.213 L 196.342 85.552 L 195.624 85.696 Q 195.505 85.289 194.859 85.409 Q 194.62 85.744 193.807 85.504 Q 193.936 84.754 193.521 84.548 L 192.612 84.5 C 192.668 84.135 192.68 83.667 192.373 83.401 L 192.373 83.401 L 191.751 83.353 L 191.847 82.588 L 191.512 82.157 L 191.321 82.253 C 191.365 81.892 191.353 81.443 191.034 81.201 L 191.034 81.201 L 190.221 81.153 C 190.175 80.977 190.119 80.689 190.317 80.58 L 190.317 80.58 L 189.935 79.815 L 190.508 79.145 L 189.935 78.667 L 189.982 78.524 C 190.449 78.582 190.625 77.928 190.221 77.711 L 190.221 77.711 L 190.413 77.137 C 189.98 76.795 190.213 76.07 190.365 75.655 L 190.365 75.655 Z " fill="rgb(253,253,253)"/><path d=" M 158.616 75.75 L 159.429 75.798 L 158.616 75.846 L 158.616 75.75 Z  M 175.829 75.75 C 176.026 76.095 176.501 76.056 176.833 75.989 L 176.833 75.989 L 176.021 76.037 L 175.829 75.75 Z  M 189.695 75.75 L 189.839 75.798 L 189.791 76.707 C 189.798 76.408 189.834 76.027 189.695 75.75 L 189.695 75.75 Z  M 190.269 75.75 L 190.317 76.659 L 190.221 76.659 L 190.269 75.75 Z " fill-rule="evenodd" fill="rgb(166,167,200)"/><path d=" M 158.138 75.846 C 158.757 75.723 159.578 75.631 160.098 76.085 L 160.098 76.085 L 160.29 77.137 L 160.146 77.089 L 159.286 76.994 C 158.083 77.336 156.972 77.975 156.178 78.954 L 156.178 78.954 L 156.034 79.193 L 155.891 79.145 Q 155.638 78.06 155.7 76.659 Q 156.755 76.089 158.138 75.846 Z  M 189.6 75.846 L 189.743 75.894 L 189.839 77.041 L 189.456 77.328 L 189.839 77.998 L 189.17 78.285 L 189.122 78.428 L 188.691 78.38 L 188.118 76.276 L 189.6 75.846 Z  M 187.114 75.942 L 187.544 76.181 L 188.5 79.336 Q 186.988 80.741 183.767 80.436 Q 183.274 80.068 183.241 79.241 L 183.384 79.193 Q 183.492 79.803 183.958 80.054 Q 185.992 79.793 187.448 78.954 Q 187.53 77.964 187.114 77.472 L 186.779 77.615 Q 186.719 78.296 186.97 78.667 Q 185.73 79.292 184.053 79.48 L 183.671 78.906 L 183.384 79.097 L 183.336 78.858 L 183.671 77.28 L 185.966 77.376 C 186.381 77.271 186.751 77.034 186.97 76.659 L 186.97 76.659 L 187.114 75.942 Z " fill-rule="evenodd" fill="rgb(253,253,253)"/><path d=" M 202.318 76.133 L 202.701 76.611 L 202.318 76.133 Z  M 155.174 76.324 L 155.221 77.328 L 155.126 77.328 L 155.174 76.324 Z  M 163.111 76.42 C 162.956 76.509 162.896 76.64 163.063 76.754 L 163.063 76.754 L 163.015 76.994 L 162.872 76.659 L 163.111 76.42 Z  M 176.021 76.42 L 176.833 76.468 L 176.021 76.515 L 176.021 76.42 Z " fill-rule="evenodd" fill="rgb(166,167,200)"/><path d=" M 163.015 76.611 L 162.967 76.754 L 163.159 77.233 L 162.967 78.093 L 163.111 78.332 C 163.301 78.308 163.505 78.354 163.541 78.571 L 163.541 78.571 L 163.78 79.097 C 163.918 79.324 164.219 79.323 164.45 79.289 L 164.45 79.289 L 164.832 78.81 L 165.167 78.954 C 165.145 79.414 165.218 79.935 165.597 80.245 L 165.597 80.245 L 166.458 80.149 L 166.506 80.293 L 165.741 82.014 L 165.884 82.253 C 164.412 82.095 163.017 81.454 162.298 80.101 L 162.298 80.101 L 161.963 79.671 L 161.915 81.058 Q 162.271 82.806 163.398 83.783 Q 163.924 84.261 165.023 84.166 L 164.928 83.974 L 163.445 83.257 C 163.041 82.774 162.848 82.153 162.776 81.536 L 162.776 81.536 L 163.206 81.871 C 163.991 82.583 165.186 82.574 166.171 82.444 L 166.171 82.444 L 166.123 82.301 L 166.171 82.157 L 167.605 81.201 L 167.653 82.588 Q 167.486 83.568 166.84 84.07 Q 166.383 85 164.928 84.931 L 162.728 84.357 L 162.728 84.453 L 164.784 85.552 C 164.794 85.847 164.777 86.145 164.708 86.432 C 164.441 87.552 163.122 88.19 162.059 88.182 L 162.059 88.182 L 160.768 87.656 L 162.68 85.935 L 162.776 85.074 L 162.585 85.17 Q 162.329 86.061 161.581 86.461 Q 160.948 87.454 159.19 87.321 Q 158.471 87.275 158.186 86.795 Q 157.368 85.892 157.325 84.213 Q 158.232 81.343 159.764 79.097 L 160.433 78.906 C 160.59 80.582 161.022 82.272 161.963 83.688 L 161.963 83.688 L 162.107 83.64 Q 161.168 81.375 160.768 78.571 Q 160.911 78.189 161.581 78.332 L 161.868 78.428 L 162.011 78.38 C 162.203 79.753 163.165 80.722 164.545 80.914 L 164.545 80.914 L 164.354 80.627 L 162.68 79.145 C 162.053 78.542 162.348 77.07 163.015 76.611 L 163.015 76.611 Z " fill="rgb(253,253,253)"/><path d=" M 185.105 76.802 L 186.014 76.85 L 185.105 76.898 L 185.105 76.802 Z  M 203.083 76.802 L 203.753 77.567 L 203.083 76.802 Z " fill-rule="evenodd" fill="rgb(166,167,200)"/><path d=" M 161.389 76.898 L 161.724 76.946 L 161.82 77.806 L 161.294 77.854 L 161.055 77.711 C 161.014 77.476 160.996 77.165 161.198 76.994 L 161.198 76.994 L 161.389 76.898 Z  M 192.564 76.994 L 193.855 77.519 C 193.922 77.768 193.999 78.014 194.087 78.256 C 194.539 79.49 195.388 81.217 196.915 81.153 L 196.915 81.153 L 196.772 82.444 Q 195.282 82.118 194.333 81.249 Q 194.314 80.169 193.616 79.767 L 192.708 78.954 C 192.358 78.372 192.425 77.627 192.564 76.994 L 192.564 76.994 Z " fill-rule="evenodd" fill="rgb(253,253,253)"/><path d=" M 199.832 76.994 L 198.876 78.045 L 199.832 76.994 Z  M 195.242 77.089 L 196.246 77.137 L 195.242 77.185 L 195.242 77.089 Z  M 170.857 77.185 L 171.096 77.233 L 170.618 77.615 C 170.767 77.536 171.004 77.375 170.857 77.185 L 170.857 77.185 Z  M 184.818 77.28 L 186.014 77.328 L 184.818 77.376 L 184.818 77.28 Z " fill-rule="evenodd" fill="rgb(166,167,200)"/><path d=" M 197.728 77.28 L 197.967 77.424 L 198.254 79.623 Q 197.841 80.262 196.772 80.245 Q 195.8 79.831 195.29 78.954 Q 194.639 78.696 194.716 77.711 L 194.955 77.663 C 195.278 78.078 195.983 77.882 196.389 77.759 L 196.389 77.759 L 197.728 77.28 Z " fill="rgb(253,253,253)"/><path d=" M 187.018 77.472 Q 187.557 77.841 187.448 78.858 Q 186.066 79.819 183.862 79.958 Q 183.373 79.778 183.432 79.05 L 183.767 79.002 L 184.053 79.575 L 186.97 78.763 L 186.779 77.615 L 187.018 77.472 Z " fill="rgb(62,66,137)"/><line x1="167.51" y1="77.663" x2="167.988" y2="78.237"/><line x1="207.004" y1="78.045" x2="206.622" y2="78.524"/><path d=" M 158.999 78.141 L 157.612 79.623 Q 156.881 80.422 156.512 81.584 Q 156.17 81.353 156.273 80.675 L 158.234 78.524 L 158.999 78.141 Z " fill="rgb(253,253,253)"/><line x1="153.739" y1="78.237" x2="154.122" y2="78.715"/><path d=" M 154.791 78.237 L 155.317 78.667 L 155.365 78.524 L 155.413 78.858 L 154.791 78.237 Z  M 158.042 78.619 L 157.277 79.48 L 158.042 78.619 Z " fill-rule="evenodd" fill="rgb(166,167,200)"/><line x1="154.409" y1="79.002" x2="155.556" y2="80.245"/><path d=" M 192.851 79.097 L 193.234 79.575 L 192.851 79.097 Z  M 158.042 79.193 L 157.66 79.671 L 158.042 79.193 Z  M 195.529 79.193 L 196.294 80.054 L 195.529 79.193 Z  M 162.92 79.384 L 163.398 79.958 L 162.92 79.384 Z " fill-rule="evenodd" fill="rgb(166,167,200)"/><path d=" M 161.963 79.671 L 163.493 81.392 C 164.115 82.002 164.988 82.243 165.836 82.301 L 165.836 82.301 L 164.354 82.349 C 163.73 82.198 163.143 81.891 162.728 81.392 L 162.728 81.392 L 162.68 81.632 C 162.793 82.35 163.098 83.043 163.685 83.496 L 163.685 83.496 L 164.784 84.022 L 164.163 84.07 C 162.334 83.575 161.833 81.302 161.963 79.671 L 161.963 79.671 Z " fill="rgb(62,66,137)"/><path d=" M 193.616 79.767 L 193.999 80.245 L 193.616 79.767 Z  M 195.529 79.862 L 196.007 80.436 L 195.529 79.862 Z " fill-rule="evenodd" fill="rgb(166,167,200)"/><path d=" M 193.138 80.054 L 193.568 80.388 C 193.682 81.989 195.127 82.559 196.533 82.875 L 196.533 82.875 L 196.007 83.688 C 195.31 83.581 194.626 83.308 194.142 82.779 L 194.142 82.779 L 193.138 80.054 Z  M 179.75 80.245 C 180.376 80.799 181.231 80.984 182.045 81.01 L 182.045 81.01 L 183.001 80.245 L 183.384 80.819 C 184.064 81.229 184.963 81.072 185.709 80.98 C 186.538 80.877 187.355 80.694 188.07 80.245 L 188.07 80.245 L 188.213 80.771 Q 187.794 82.551 186.348 83.305 Q 185.415 84.571 183.384 84.739 L 182.428 83.592 C 182.299 83.29 181.945 83.267 181.663 83.305 L 181.663 83.305 L 181.185 83.974 L 180.611 82.827 Q 179.747 82.776 179.463 83.305 Q 179.162 82.841 179.32 81.918 Q 179.611 81.636 179.607 81.058 L 179.415 80.58 L 179.75 80.245 Z " fill-rule="evenodd" fill="rgb(253,253,253)"/><path d=" M 198.685 80.341 L 198.828 80.388 L 198.78 82.349 C 198.824 81.727 198.936 80.935 198.685 80.341 L 198.685 80.341 Z  M 205.761 80.341 L 205.809 82.397 L 205.57 82.444 L 205.57 82.349 L 205.713 82.301 L 205.761 80.341 Z  M 183.862 80.436 L 185.344 80.484 L 183.862 80.532 L 183.862 80.436 Z " fill-rule="evenodd" fill="rgb(166,167,200)"/><path d=" M 198.589 80.436 L 198.732 80.484 C 198.569 81.486 198.533 82.819 199.497 83.448 L 199.497 83.448 L 198.493 84.739 C 197.9 85.157 197.197 85.39 196.485 85.504 L 196.485 85.504 L 196.437 83.927 C 197.311 83.19 197.545 82.004 197.537 80.914 L 197.537 80.914 L 198.589 80.436 Z  M 158.138 80.532 L 157.995 80.771 L 156.895 83.018 L 156.847 82.588 C 157.053 81.784 157.471 81.04 158.138 80.532 L 158.138 80.532 Z " fill-rule="evenodd" fill="rgb(253,253,253)"/><line x1="162.728" y1="80.532" x2="163.493" y2="81.392"/><path d=" M 206.239 80.627 L 206.287 82.779 L 206.191 82.779 L 206.239 80.627 Z " fill="rgb(61,64,136)"/><path d=" M 189.409 80.819 Q 190.07 81.64 190.078 83.114 Q 190.702 83.111 190.986 83.448 Q 191.02 84.084 191.417 84.357 Q 191.946 84.306 192.134 84.596 Q 192.291 85.491 192.899 85.935 Q 191.268 88.368 187.687 88.851 Q 186.485 88.571 185.918 87.656 Q 185.018 86.692 185.153 84.692 Q 186.732 84.358 187.592 83.305 L 189.217 86.174 L 189.265 85.935 C 188.585 84.827 188.397 83.484 188.404 82.205 L 188.404 82.205 L 189.409 80.819 Z " fill="rgb(253,253,253)"/><path d=" M 199.258 80.819 L 199.306 82.301 L 199.21 82.301 L 199.258 80.819 Z  M 184.532 80.914 L 185.344 80.962 L 184.532 81.01 L 184.532 80.914 Z  M 187.687 81.966 L 186.731 83.018 L 187.687 81.966 Z  M 165.98 82.157 L 166.123 82.205 L 166.219 82.397 L 165.215 82.444 L 165.215 82.349 C 165.467 82.407 165.853 82.453 165.98 82.157 L 165.98 82.157 Z  M 203.179 82.253 L 204.088 82.301 L 203.179 82.349 L 203.179 82.253 Z " fill-rule="evenodd" fill="rgb(166,167,200)"/><path d=" M 200.788 82.922 C 201.379 82.895 202.017 83.046 202.271 83.64 L 202.271 83.64 L 202.318 83.879 L 202.988 83.783 C 203.374 83.784 203.788 83.857 204.088 84.118 L 204.088 84.118 L 203.944 84.357 L 202.223 84.261 L 201.84 85.122 L 201.506 85.074 C 201.483 84.665 201.546 84.198 201.888 83.927 L 201.888 83.927 L 200.741 83.257 L 200.788 82.922 Z " fill="rgb(62,66,137)"/><path d=" M 162.92 83.209 L 163.398 83.783 L 162.92 83.209 Z  M 182.428 83.592 L 182.81 84.07 L 182.428 83.592 Z  M 164.832 83.974 L 165.071 84.118 L 164.354 84.166 L 164.354 84.07 L 164.832 83.974 Z  M 196.389 83.974 L 196.437 85.552 L 196.246 85.457 C 196.67 85.117 196.509 84.412 196.389 83.974 L 196.389 83.974 Z " fill-rule="evenodd" fill="rgb(166,167,200)"/><path d=" M 167.223 84.357 C 170.679 86.623 174.851 87.515 178.927 87.741 C 180.98 87.855 183.11 87.901 185.105 87.321 L 185.105 87.321 L 186.157 88.66 L 186.683 88.995 Q 183.019 89.873 178.22 89.616 Q 170.593 89.02 165.262 86.126 Q 165.119 85.552 165.406 85.409 Q 166.513 85.082 167.223 84.357 Z " fill="rgb(253,253,253)"/><line x1="200.023" y1="85.696" x2="200.406" y2="86.174"/><line x1="162.25" y1="85.791" x2="161.772" y2="86.365"/><path d=" M 193.425 85.983 L 193.568 86.03 C 193.544 86.286 193.57 86.594 193.807 86.748 L 193.807 86.748 L 193.951 86.795 L 191.704 87.704 L 191.799 87.513 C 192.429 87.184 192.975 86.712 193.377 86.126 L 193.377 86.126 L 193.425 85.983 Z " fill="rgb(253,253,253)"/><line x1="164.736" y1="87.321" x2="164.258" y2="87.895"/><path d=" M 179.081 87.704 L 181.71 87.752 L 179.081 87.8 L 179.081 87.704 Z  M 186.062 87.8 L 186.54 88.373 L 186.062 87.8 Z  M 185.775 88.182 L 186.157 88.66 L 185.775 88.182 Z " fill-rule="evenodd" fill="rgb(166,167,200)"/><path d=" M 161.963 88.565 L 162.776 88.612 L 161.963 88.66 L 161.963 88.565 Z " fill="rgb(61,64,136)"/><path d=" M 179.559 89.616 L 181.041 89.664 L 179.559 89.712 L 179.559 89.616 Z " fill="rgb(166,167,200)"/><path d=" M 178.698 90.382 L 179.989 90.429 L 178.698 90.477 L 178.698 90.382 Z  M 180.706 90.382 L 181.997 90.429 L 180.706 90.477 L 180.706 90.382 Z " fill-rule="evenodd" fill="rgb(60,63,136)"/></g></svg>