<?xml version="1.0" standalone="no"?><!-- Generator: Gravit.io --><svg xmlns="http://www.w3.org/2000/svg" xmlns:xlink="http://www.w3.org/1999/xlink" style="isolation:isolate" viewBox="204 80.49 151 151.021" width="151" height="151.021"><g><g><path d=" M 351.423 80.994 C 351.153 81.006 350.847 81.087 350.577 81.183 L 317.294 92.245 C 316.814 92.41 316.322 92.713 315.98 93.088 L 247.819 167.817 L 258.224 175.129 C 259.079 175.729 259.853 176.509 260.474 177.379 L 267.696 187.695 L 342.422 119.527 C 342.797 119.188 343.1 118.696 343.265 118.216 L 354.33 84.93 C 354.69 83.853 354.48 82.647 353.67 81.84 C 353.071 81.256 352.255 80.95 351.42 80.994 L 351.423 80.994 Z  M 226.813 161.253 C 226.122 161.283 225.46 161.548 224.938 162.003 L 219.598 166.971 C 218.998 167.523 218.578 168.321 218.563 169.129 C 218.554 169.948 218.929 170.71 219.502 171.286 L 264.225 216.009 C 264.789 216.573 265.491 216.948 266.289 216.948 L 266.382 216.948 C 267.192 216.936 267.882 216.582 268.446 216.009 L 273.508 210.758 C 274.498 209.704 274.615 208.102 273.79 206.915 L 255.506 180.845 C 255.298 180.555 255.045 180.302 254.755 180.095 L 228.689 161.814 C 228.151 161.41 227.488 161.21 226.816 161.25 L 226.813 161.253 Z  M 229.064 189.381 L 217.344 204.196 C 224.594 205.22 230.291 210.917 231.317 218.166 L 246.13 206.444 L 229.064 189.381 Z  M 215.001 210.008 C 209.202 210.008 204.5 214.71 204.5 220.509 C 204.5 226.309 209.202 231.01 215.001 231.01 C 220.801 231.01 225.502 226.309 225.502 220.509 C 225.502 214.71 220.801 210.008 215.001 210.008 Z " fill="rgb(62,65,137)" vector-effect="non-scaling-stroke" stroke-width="1" stroke="rgb(0,0,0)" stroke-linejoin="miter" stroke-linecap="butt" stroke-miterlimit="4"/><path d=" M 207.577 80.994 C 207.847 81.006 208.153 81.087 208.423 81.183 L 241.706 92.245 C 242.186 92.41 242.678 92.713 243.02 93.088 L 311.181 167.817 L 300.776 175.129 C 299.921 175.729 299.147 176.509 298.526 177.379 L 291.304 187.695 L 216.578 119.527 C 216.203 119.188 215.9 118.696 215.735 118.216 L 204.67 84.93 C 204.31 83.853 204.52 82.647 205.33 81.84 C 205.929 81.256 206.745 80.95 207.58 80.994 L 207.577 80.994 Z  M 332.187 161.253 C 332.878 161.283 333.54 161.548 334.062 162.003 L 339.402 166.971 C 340.002 167.523 340.422 168.321 340.437 169.129 C 340.446 169.948 340.071 170.71 339.498 171.286 L 294.775 216.009 C 294.211 216.573 293.509 216.948 292.711 216.948 L 292.618 216.948 C 291.808 216.936 291.118 216.582 290.554 216.009 L 285.492 210.758 C 284.502 209.704 284.385 208.102 285.21 206.915 L 303.494 180.845 C 303.702 180.555 303.955 180.302 304.245 180.095 L 330.311 161.814 C 330.849 161.41 331.512 161.21 332.184 161.25 L 332.187 161.253 Z  M 329.936 189.381 L 341.656 204.196 C 334.406 205.22 328.709 210.917 327.683 218.166 L 312.87 206.444 L 329.936 189.381 Z  M 343.999 210.008 C 349.798 210.008 354.5 214.71 354.5 220.509 C 354.5 226.309 349.798 231.01 343.999 231.01 C 338.199 231.01 333.498 226.309 333.498 220.509 C 333.498 214.71 338.199 210.008 343.999 210.008 Z " fill="rgb(62,65,137)" vector-effect="non-scaling-stroke" stroke-width="1" stroke="rgb(0,0,0)" stroke-linejoin="miter" stroke-linecap="butt" stroke-miterlimit="4"/></g><g><path d=" M 237.18 114.577 L 233.1 114.577 L 233.1 108.177 L 250.06 108.177 L 250.06 114.577 L 244.54 114.577 L 258.94 160.897 L 273.42 114.577 L 267.9 114.577 L 267.9 108.177 L 284.86 108.177 L 284.86 114.577 L 280.78 114.577 L 264.06 168.177 L 253.9 168.177 L 237.18 114.577 L 237.18 114.577 Z " fill="rgb(255,255,255)"/><path d=" M 319.1 153.983 L 319.1 164.063 L 312.46 164.063 L 312.46 157.023 L 307.66 152.063 L 295.42 152.063 L 291.26 156.303 L 291.26 167.343 L 295.18 171.343 L 311.82 171.343 L 319.9 179.823 L 319.9 196.383 L 311.58 205.183 L 291.42 205.183 L 283.1 196.383 L 283.1 186.303 L 289.74 186.303 L 289.74 193.343 L 294.62 198.303 L 308.46 198.303 L 312.54 194.063 L 312.54 182.143 L 308.7 178.223 L 292.06 178.223 L 283.9 169.663 L 283.9 153.983 L 292.22 145.183 L 310.78 145.183 L 319.1 153.983 L 319.1 153.983 Z " fill="rgb(255,255,255)"/></g></g></svg>